<svg xmlns="http://www.w3.org/2000/svg" xmlns:xlink="http://www.w3.org/1999/xlink" fill="none"
    version="1.1" width="60" height="60" viewBox="0 0 60 60">
    <defs>
        <linearGradient x1="0.5" y1="0" x2="0.5" y2="1" id="master_svg0_594_2193">
            <stop offset="0%" stop-color="#16B979" stop-opacity="1" />
            <stop offset="100%" stop-color="#16B979" stop-opacity="0" />
        </linearGradient>
        <linearGradient x1="0.5" y1="0" x2="0.5" y2="1" id="master_svg1_594_2193">
            <stop offset="0%" stop-color="#16B979" stop-opacity="1" />
            <stop offset="100%" stop-color="#16B979" stop-opacity="0" />
        </linearGradient>
        <linearGradient x1="0.5" y1="0" x2="0.5" y2="1" id="master_svg2_594_2193">
            <stop offset="0%" stop-color="#16B979" stop-opacity="1" />
            <stop offset="100%" stop-color="#16B979" stop-opacity="0" />
        </linearGradient>
    </defs>
    <g style="mix-blend-mode:passthrough">
        <g style="opacity:0;mix-blend-mode:passthrough">
            <rect x="0" y="0" width="40" height="40" rx="0" fill="#fff" fill-opacity="1" />
        </g>
        <g>
            <g>
                <path
                    d="M26.0414911328125,11.09321502105713C28.4005211328125,12.64672502105713,30.126651132812498,15.005755021057128,30.7595611328125,17.82504502105713C32.2555111328125,18.40044502105713,33.6364111328125,19.09094502105713,35.0173111328125,19.83894502105713C34.8447111328125,13.912545021057129,31.2198611328125,8.849255021057129,26.0414911328125,6.547755021057129C24.7756711328125,5.972382021057129,23.4523111328125,5.627157021057129,22.0714111328125,5.454545021057129L22.0714111328125,9.482165021057128L22.0714111328125,15.926345021057129C23.3947711328125,16.04144502105713,24.718131132812502,16.214045021057128,26.0414911328125,16.44414502105713L26.0414911328125,11.09321502105713Z"
                    fill="url(#master_svg0_594_2193)" fill-opacity="1" />
            </g>
            <g>
                <path
                    d="M14.0736183203125,11.09321502105713L14.0736183203125,16.44414502105713C15.3969783203125,16.214045021057128,16.7203783203125,16.04144502105713,18.0436783203125,15.926345021057129L18.0436783203125,9.482165021057128L18.0436783203125,5.454545021057129C16.662778320312498,5.627157021057129,15.2818783203125,6.029919021057129,14.0736183203125,6.547755021057129C8.9527883203125,8.79171502105713,5.2703903203125,13.85500502105713,5.0977783203125,19.781345021057128C6.4786783203125005,18.97584502105713,7.8595783203125,18.34294502105713,9.3555483203125,17.76754502105713C10.0459983203125,15.005755021057128,11.7721183203125,12.58918502105713,14.0736183203125,11.09321502105713Z"
                    fill="url(#master_svg1_594_2193)" fill-opacity="1" />
            </g>
            <g>
                <path
                    d="M29.7814373046875,18.22784172515869C26.6744373046875,17.19216572515869,23.3947373046875,16.61679172515869,20.0576373046875,16.61679172515869C16.777937304687498,16.61679172515869,13.4408373046875,17.13462772515869,10.3337773046875,18.17030172515869C7.2842873046875,19.20597172515869,4.3498873046875,20.759481725158693,1.8182373046875,22.830831725158692C2.9114473046875,22.312991725158692,4.0621973046874995,21.852691725158692,5.1554073046875,21.44993172515869C5.5581673046875,26.74339172515869,8.7802673046875,31.34639172515869,13.2681373046875,33.647891725158686L13.2681373046875,28.929791725158694C10.7365373046875,26.91599172515869,9.0679473046875,23.808961725158692,9.0679473046875,20.29918172515869C9.0679473046875,20.24164172515869,9.0679473046875,20.18411172515869,9.0679473046875,20.12657172515869C9.6433273046875,19.953961725158692,10.2186973046875,19.838881725158693,10.7365373046875,19.66627172515869C11.8297373046875,19.436121725158692,12.9229373046875,19.20597172515869,14.0161373046875,19.03336172515869L14.0161373046875,26.74339172515869L14.0161373046875,29.44759172515869L14.0161373046875,33.99309172515869C15.2820373046875,34.568491725158694,16.605337304687502,34.91369172515869,17.9862373046875,35.08629172515869L17.9862373046875,31.058691725158692L17.9862373046875,18.68814172515869C18.6767373046875,18.63060172515869,19.3096373046875,18.63060172515869,20.0000373046875,18.63060172515869C20.6329373046875,18.63060172515869,21.3234373046875,18.63060172515869,21.9563373046875,18.68814172515869L21.9563373046875,31.058691725158692L21.9563373046875,35.08629172515869C23.3372373046875,34.91369172515869,24.7181373046875,34.51089172515869,25.9264373046875,33.99309172515869C30.8746373046875,31.86419172515869,34.3844373046875,27.088591725158693,34.8447373046875,21.50747172515869C35.9954373046875,21.96777172515869,37.0886373046875,22.42807172515869,38.1818373046875,22.94590172515869C35.8228373046875,20.874561725158692,32.8884373046875,19.321051725158693,29.7814373046875,18.22784172515869ZM26.0415373046875,29.44759172515869L26.0415373046875,19.09090172515869C27.1347373046875,19.263511725158693,28.2279373046875,19.49366172515869,29.3211373046875,19.72381172515869C29.8965373046875,19.838881725158693,30.4143373046875,20.01150172515869,30.9897373046875,20.18411172515869C30.9897373046875,20.24165172515869,30.9897373046875,20.24165172515869,30.9897373046875,20.29918172515869C31.0472373046875,24.096651725158694,29.0334373046875,27.491391725158692,26.0415373046875,29.44759172515869Z"
                    fill="url(#master_svg2_594_2193)" fill-opacity="1" />
            </g>
        </g>
    </g>
</svg>